<?xml version="1.0" encoding="iso-8859-1"?>
<!-- Generator: Adobe Illustrator 19.0.0, SVG Export Plug-In . SVG Version: 6.00 Build 0)  -->
<svg version="1.1" id="Capa_1" xmlns="http://www.w3.org/2000/svg" xmlns:xlink="http://www.w3.org/1999/xlink" x="0px" y="0px"
	 viewBox="0 0 512 512" style="enable-background:new 0 0 512 512;" xml:space="preserve">
<path style="fill:#2195F2;" d="M504.539,255.994c0,26.263-4.078,51.601-11.637,75.368c-1.582,5.002-3.328,9.922-5.218,14.78
	c-36.102,92.685-126.199,158.357-231.651,158.357c-41.351,0-80.329-10.106-114.613-27.968c-8.052-4.191-15.848-8.813-23.356-13.835
	c-25.092-16.773-46.948-38.002-64.45-62.55c-15.838-22.185-28.112-47.092-36-73.879c-6.563-22.277-10.075-45.859-10.075-70.273
	c0-41.926,10.384-81.418,28.717-116.062c4.273-8.083,8.977-15.91,14.092-23.438c34.757-51.128,88.063-88.617,150.253-102.781
	c8.35-1.911,16.855-3.4,25.503-4.437c9.819-1.181,19.813-1.777,29.93-1.777c54.785,0,105.421,17.717,146.494,47.75
	c18.251,13.332,34.603,29.087,48.582,46.804c21.014,26.571,36.708,57.538,45.469,91.288c1.335,5.156,2.516,10.384,3.523,15.663
	C503.019,224.226,504.539,239.931,504.539,255.994z"/>
<g>
	<path style="fill:#006FAD;" d="M445.758,107.877l-22.134,22.134l15.858,93.568l-33.279,33.279
		c-4.401,4.401-11.783,3.412-14.869-1.993l-33.65-58.924l-8.895,8.895l11.562,34.677c0.795,2.384,0.174,5.013-1.603,6.79
		l-23.975,23.975c-2.889,2.889-7.679,2.505-10.071-0.808l-37.16-51.477l-51.477-37.16c-3.313-2.392-3.698-7.181-0.808-10.071
		l23.976-23.976c1.777-1.777,4.405-2.397,6.788-1.603l34.678,11.553l8.895-8.895l-69.668-39.769l42.029-42.029l93.568,15.869
		l22.134-22.134c1.572-1.571,3.194-3.092,4.868-4.529c18.251,13.332,34.603,29.087,48.582,46.804
		C449.425,104.056,447.638,105.997,445.758,107.877z"/>
	<path style="fill:#006FAD;" d="M492.902,331.362c-1.582,5.002-3.328,9.922-5.218,14.78
		c-36.102,92.685-126.199,158.357-231.651,158.357c-41.351,0-80.329-10.106-114.613-27.968c-8.052-4.191-15.848-8.813-23.356-13.835
		c-41.258-95.078-18.765-133.635,8.689-149.175c9.932-5.618,19.638-8.474,28.841-8.474c28.892,0,45.5,25.944,61.564,51.036
		c18.303,28.584,35.589,55.586,68.764,55.597c0.01,0,0.01,0,0.01,0c2.444,0,5.002-0.154,7.601-0.442
		c32.805-3.677,55.432-26.099,77.32-47.791c22.329-22.123,45.408-44.997,78.151-44.997
		C463.126,318.452,477.516,322.683,492.902,331.362z"/>
	<path style="fill:#006FAD;" d="M500.102,209.005c-28.296,15.458-53.655,22.976-77.422,22.976
		c-52.043,0-81.654-35.732-105.441-64.44c-13.465-16.249-26.181-31.594-36.821-31.594c-1.849,0-3.79,0.411-5.937,1.263
		c-23.448,9.306-43.703,14.03-60.188,14.03c-0.01,0-0.01,0-0.01,0c-17.471,0-31.306-5.135-41.115-15.273
		c-10.456-10.784-15.427-26.386-14.79-46.363c0.657-20.46,14.503-45.397,42.224-75.892c8.35-1.911,16.855-3.4,25.503-4.437
		c9.819-1.181,19.813-1.777,29.93-1.777c115.61,0,212.783,78.942,240.545,185.842C497.914,198.497,499.095,203.725,500.102,209.005z
		"/>
	<path style="fill:#006FAD;" d="M100.357,198.128c-6.214,11.545-16.012,24.804-27.351,40.149
		c-15.725,21.281-33.555,45.408-47.246,72.112l-8.145,15.879c-6.564-22.278-10.076-45.86-10.076-70.274
		c0-41.926,10.384-81.418,28.717-116.062c6.019-0.616,11.678-0.925,16.896-0.925c22.791,0,39.184,5.988,48.715,17.8
		C114.305,172.204,103.808,191.708,100.357,198.128z"/>
</g>
<g>
	<path style="fill:#8BCC3F;" d="M487.683,346.138c-36.101,92.689-126.198,158.363-231.649,158.363
		c-41.348,0-80.331-10.106-114.618-27.97c-24.682-50.515-50.855-124.821-7.078-149.601c68.589-38.838,66.97,110.132,160.906,99.621
		C383.641,416.655,402.412,295.623,487.683,346.138z"/>
	<path style="fill:#8BCC3F;" d="M496.579,193.341c-22.278,12.633-41.577,19.463-58.493,22.021
		c-97.913,14.841-116.062-113.586-169.285-92.469c-0.575,0.226-1.15,0.452-1.715,0.678c-64.132,24.989-94.729,10.784-93.311-33.473
		c0.76-23.675,27.434-55.843,52.33-80.822c9.819-1.181,19.813-1.777,29.93-1.777c54.785,0,105.421,17.717,146.494,47.75
		c18.251,13.332,34.603,29.087,48.582,46.804C472.124,128.624,487.818,159.591,496.579,193.341z"/>
</g>
<path style="fill:#75AC35;" d="M445.758,107.877l-22.134,22.134l14.461,85.351c-98.897,14.991-116.418-116.183-170.901-91.787
	c-0.035-0.002-0.064-0.003-0.099-0.004l-17.42-9.942c-4.903-2.798-5.801-9.493-1.809-13.484l30.976-30.976
	c1.96-1.96,4.749-2.85,7.483-2.386l89.211,15.13l22.134-22.134c1.572-1.571,3.194-3.092,4.868-4.529
	c18.251,13.332,34.603,29.087,48.582,46.804C449.425,104.056,447.638,105.997,445.758,107.877z"/>
<path style="fill:#006FAD;" d="M141.178,289.2c-4.161,0-8.248-0.65-12.149-1.931c-27.697-9.097-39.194-47.277-26.174-86.92
	c10.907-33.21,35.77-56.405,60.462-56.405c4.161,0,8.248,0.65,12.149,1.931c14.327,4.705,25.024,17.645,29.349,35.501
	c3.753,15.495,2.625,33.755-3.176,51.418C190.734,266.006,165.871,289.2,141.178,289.2z"/>
<g>
	
		<ellipse transform="matrix(0.9501 0.312 -0.312 0.9501 75.1722 -36.6884)" style="fill:#8BCC3F;" cx="152.244" cy="216.583" rx="36.583" ry="59.011"/>
	<path style="fill:#8BCC3F;" d="M12.048,303.354c-2.958-15.324-4.509-31.162-4.509-47.359c0-35.404,7.405-69.072,20.747-99.546
		c27.29-4.006,51.252-2.773,61.595,10.034C105.154,185.392,46.198,236.767,12.048,303.354z"/>
</g>
<path style="fill:#CEE4EA;" d="M361.064,170.779l39.773,69.66l22.132-22.132l-15.863-93.57l27.757-27.757
	c11.506-11.506,19.15-26.304,21.874-42.346c0.584-3.437-2.4-6.421-5.837-5.837c-16.042,2.724-30.84,10.368-42.346,21.874
	l-27.757,27.757l-93.57-15.863l-22.132,22.132l69.66,39.773l-29.897,29.897l-38.567-12.856l-12.856,12.856l45.144,32.588
	l32.588,45.144l12.856-12.856l-12.856-38.567L361.064,170.779z"/>
<path d="M187.675,226.859c4.035,0.925,8.061-1.597,8.986-5.635c7.422-32.367-2.529-60.897-23.662-67.838
	c-23.483-7.708-50.997,14-62.632,49.432c-5.348,16.282-6.415,33.006-3.003,47.089c3.721,15.36,12.291,25.962,24.132,29.851
	c3.201,1.051,6.486,1.563,9.809,1.563c14.337-0.001,29.347-9.552,40.966-26.646c2.328-3.426,1.438-8.091-1.987-10.419
	c-3.426-2.327-8.09-1.438-10.419,1.987c-10.236,15.061-23.458,22.628-33.688,19.263c-9.075-2.979-12.813-13.265-14.234-19.13
	c-2.763-11.405-1.812-25.212,2.676-38.878c8.711-26.524,28.727-44.774,43.701-39.859c13.162,4.322,19.189,26.388,13.722,50.234
	C181.115,221.91,183.638,225.934,187.675,226.859z"/>
<path d="M504.039,273.495c-4.121-0.411-7.796,2.597-8.208,6.718c-1.659,16.623-5.049,33.067-10.081,48.888
	c-0.658,2.079-1.364,4.185-2.102,6.301c-48.745-24.283-78.453,5.148-107.229,33.665c-22.846,22.641-46.47,46.052-82.009,50.031
	c-43.206,4.813-63.9-27.491-83.914-58.752c-6.987-10.913-13.706-21.398-21.174-29.728l20.694-21.644
	c2.863-2.993,2.756-7.741-0.238-10.604s-7.742-2.756-10.604,0.238l-20.945,21.907c-14.305-10.099-29.882-10.136-47.585-0.113
	c-23.278,13.176-31.706,39.103-25.334,76.383l-16.183,16.928c-2.862,2.994-2.755,7.741,0.239,10.604
	c1.453,1.39,3.318,2.079,5.182,2.079c1.976,0,3.949-0.776,5.422-2.317l9.233-9.657c3.558,13.354,8.71,27.908,15.457,43.616
	c-0.808-0.527-1.627-1.041-2.427-1.576c-24.412-16.317-45.444-36.729-62.514-60.672c-15.601-21.854-27.346-45.958-34.909-71.641
	c-1.909-6.479-3.533-13.04-4.885-19.662c13.811-26.349,31.265-49.989,46.724-70.908c11.162-15.103,20.802-28.146,26.748-39.2
	c4.917-9.143,10.508-22.47,2.32-32.607c-9.563-11.843-27.586-16.56-54.872-14.322c0.676-1.339,1.341-2.684,2.043-4.01
	c1.608-3.042,3.302-6.086,5.034-9.049c2.091-3.576,0.888-8.169-2.688-10.261c-3.576-2.089-8.169-0.887-10.26,2.688
	c-1.84,3.146-3.639,6.38-5.345,9.607c-2.883,5.448-5.558,11.003-8.033,16.647c-0.125,0.248-0.24,0.501-0.338,0.763
	C7.333,185.881,0.039,220.831,0.039,255.994c0,16.464,1.566,32.794,4.653,48.791c0.014,0.072,0.025,0.144,0.041,0.215
	c1.528,7.884,3.42,15.689,5.688,23.386c8.036,27.29,20.515,52.899,37.087,76.114c7.388,10.363,15.488,20.092,24.234,29.169
	c-1.373,0.319-2.672,1.023-3.718,2.118l-10.366,10.842c-2.862,2.993-2.756,7.741,0.238,10.604c1.453,1.39,3.319,2.079,5.182,2.079
	c1.976,0,3.949-0.776,5.422-2.317l10.366-10.842c0.986-1.031,1.611-2.272,1.896-3.571c10.264,9.645,21.322,18.453,33.134,26.35
	c7.735,5.174,15.832,9.97,24.061,14.252C174.143,502.036,214.973,512,256.036,512c52.59,0,103.116-15.826,146.117-45.767
	c42.016-29.255,74.009-69.84,92.523-117.371c1.987-5.108,3.797-10.235,5.375-15.226c5.343-16.802,8.946-34.274,10.708-51.933
	C511.168,277.581,508.161,273.906,504.039,273.495z M33.53,163.302c26.195-3.348,43.624-0.642,50.516,7.894
	c1.853,2.294,0.482,8.003-3.86,16.076c-5.438,10.109-14.781,22.752-25.601,37.392c-11.824,16-25.856,35.001-38.315,55.755
	c-0.813-8.087-1.231-16.237-1.231-24.424C15.039,224.156,21.388,192.508,33.53,163.302z M256.034,496.999
	c-37.844,0-75.462-9.009-108.98-26.032c-9.422-19.536-20.207-45.216-25.487-69.479l1.015-1.062
	c2.862-2.994,2.755-7.741-0.239-10.604c-0.912-0.872-1.987-1.465-3.122-1.789c-2.997-23.668,0.92-44.45,18.813-54.578
	c26.253-14.868,38.57,1.771,59.83,34.978c19.01,29.692,42.348,66.158,87.998,66.154c3.286,0,6.694-0.189,10.217-0.584
	c40.724-4.559,67.381-30.976,90.899-54.283c14.698-14.566,28.582-28.324,43.838-34.635c14.673-6.068,29.87-4.669,47.412,4.4
	C440.484,439.317,353.981,496.999,256.034,496.999z"/>
<path d="M57.655,106.132c1.386,1.116,3.048,1.658,4.699,1.658c2.192,0,4.365-0.956,5.847-2.796
	c33.978-42.198,81.589-72.02,134.071-83.973c0.983-0.225,1.974-0.423,2.96-0.636c-25.285,28.149-38.371,51.466-38.949,69.474
	c-0.678,21.156,5.374,36.378,17.988,45.24c17.75,12.471,47.12,10.707,87.291-5.237c14.656-5.812,25.934,2.347,43.922,23.271
	l-12.653,12.653l-34.169-11.391c-2.695-0.898-5.667-0.197-7.675,1.813l-12.855,12.856c-1.554,1.554-2.348,3.712-2.172,5.903
	c0.176,2.19,1.304,4.194,3.086,5.48l44.162,31.878l31.879,44.162c1.287,1.782,3.29,2.91,5.481,3.086
	c0.201,0.017,0.401,0.024,0.601,0.024c1.98,0,3.891-0.785,5.303-2.196l12.855-12.855c2.009-2.009,2.71-4.98,1.812-7.676
	l-11.39-34.17l10.411-10.411c8.584,8.153,17.029,14.546,25.624,19.395l18.541,32.473c1.159,2.03,3.199,3.404,5.516,3.715
	c2.315,0.313,4.647-0.478,6.3-2.13l21.819-21.819c19.571-0.971,40.5-7.334,63.585-19.323c0.421,1.942,0.823,3.883,1.19,5.812
	c2.48,12.918,3.902,26.201,4.228,39.479c0.1,4.078,3.437,7.316,7.494,7.316c0.062,0,0.125-0.001,0.187-0.002
	c4.141-0.102,7.416-3.541,7.314-7.682c-0.345-14.103-1.856-28.213-4.489-41.925c-1.015-5.349-2.236-10.781-3.629-16.146
	c-8.926-34.39-24.688-66.035-46.845-94.057c-2.063-2.611-4.203-5.2-6.384-7.75c6.837-10.09,11.445-21.533,13.522-33.759
	c0.68-4.005-0.628-8.111-3.501-10.984c-2.873-2.874-6.98-4.184-10.986-3.503c-12.529,2.128-24.231,6.924-34.503,14.045
	c-2.67-2.124-5.403-4.219-8.185-6.253C362.939,17.012,310.75,0,256.029,0c-10.365,0-20.681,0.612-30.648,1.815
	c-0.002,0-0.003,0-0.005,0.001c-0.051,0.006-0.103,0.011-0.154,0.017c-8.762,1.042-17.609,2.579-26.289,4.564
	C143.181,19.096,92.603,50.77,56.517,95.586C53.919,98.813,54.428,103.534,57.655,106.132z M445.226,106.702
	c19.651,24.851,33.95,52.726,42.565,82.929c-21.451,11.514-41.181,17.94-58.823,19.192l-13.82-81.521l25.018-25.018
	c0.27-0.27,0.526-0.55,0.792-0.823C442.407,103.195,443.836,104.943,445.226,106.702z M429.559,91.678l-27.757,27.757
	c-1.718,1.719-2.498,4.162-2.091,6.558l15.216,89.751l-12.448,12.446l-14.578-25.533c-0.02-0.039-0.044-0.076-0.066-0.115
	l-20.258-35.481c-1.159-2.03-3.199-3.404-5.516-3.715c-2.319-0.312-4.647,0.478-6.3,2.13l-29.897,29.896
	c-2.009,2.009-2.71,4.98-1.812,7.676l11.39,34.17l-3.349,3.349l-27.432-38.002c-0.47-0.65-1.041-1.222-1.691-1.691l-38.002-27.432
	l3.35-3.35l34.169,11.391c2.695,0.897,5.667,0.196,7.675-1.812l20.832-20.833c0.022-0.022,0.044-0.043,0.065-0.065l9-9
	c1.653-1.653,2.441-3.983,2.13-6.301c-0.311-2.317-1.685-4.356-3.715-5.516l-61.13-34.902l12.448-12.447l89.751,15.216
	c2.394,0.41,4.839-0.373,6.557-2.091l27.756-27.757c1.798-1.798,3.677-3.488,5.632-5.068c0.068-0.052,0.135-0.103,0.201-0.157
	c8.463-6.792,18.314-11.52,28.971-13.876C445.74,70.084,439.181,82.056,429.559,91.678z M398.103,61.305
	c1.774,1.297,3.525,2.622,5.254,3.96c-0.035,0.035-0.072,0.068-0.107,0.103l-25.018,25.019l-89.751-15.216
	c-2.393-0.407-4.838,0.373-6.557,2.091l-22.132,22.132c-1.653,1.653-2.441,3.983-2.13,6.301c0.311,2.317,1.685,4.356,3.715,5.516
	l6.856,3.915c-0.729,0.246-1.461,0.501-2.201,0.794c-34.684,13.768-59.974,16.154-73.137,6.907
	c-8.215-5.772-12.125-16.702-11.619-32.486c0.534-16.641,17.665-42.828,48.285-73.883C238.205,15.506,247.088,15,256.029,15
	C307.545,15,356.673,31.012,398.103,61.305z"/>
<path d="M261.519,366.977h68.297c4.142,0,7.5-3.357,7.5-7.5s-3.358-7.5-7.5-7.5h-68.297c-4.142,0-7.5,3.357-7.5,7.5
	S257.377,366.977,261.519,366.977z"/>
<path d="M329.815,331.146h-19.051c-4.142,0-7.5,3.357-7.5,7.5s3.358,7.5,7.5,7.5h19.051c4.142,0,7.5-3.357,7.5-7.5
	S333.958,331.146,329.815,331.146z"/>
<path d="M274.838,241.172l10.366-10.842c2.862-2.993,2.756-7.741-0.238-10.604c-2.994-2.863-7.741-2.756-10.604,0.238
	l-10.366,10.842c-2.862,2.993-2.756,7.741,0.238,10.604c1.453,1.39,3.319,2.079,5.182,2.079
	C271.392,243.489,273.365,242.713,274.838,241.172z"/>
<path d="M155.457,344.335l-22.612,23.651c-2.863,2.994-2.756,7.741,0.238,10.604c1.453,1.39,3.319,2.079,5.182,2.079
	c1.976,0,3.949-0.776,5.422-2.317l22.612-23.651c2.863-2.994,2.756-7.741-0.238-10.604
	C163.066,341.232,158.318,341.34,155.457,344.335z"/>
<path d="M242.892,252.882l-22.612,23.651c-2.863,2.994-2.756,7.741,0.238,10.604c1.453,1.39,3.319,2.079,5.182,2.079
	c1.976,0,3.949-0.776,5.422-2.317l22.612-23.651c2.863-2.994,2.756-7.741-0.238-10.604
	C250.501,249.78,245.753,249.888,242.892,252.882z"/>
<g>
</g>
<g>
</g>
<g>
</g>
<g>
</g>
<g>
</g>
<g>
</g>
<g>
</g>
<g>
</g>
<g>
</g>
<g>
</g>
<g>
</g>
<g>
</g>
<g>
</g>
<g>
</g>
<g>
</g>
</svg>
